<svg xmlns="http://www.w3.org/2000/svg" xmlns:xlink="http://www.w3.org/1999/xlink" viewBox="0 0 463.7 311.22"><defs><style>.cls-1,.cls-12{fill:none;}.cls-2{isolation:isolate;}.cls-3{clip-path:url(#clip-path);}.cls-4{fill:url(#Áåçûìÿííûé_ãðàäèåíò_29);}.cls-5{fill:url(#Áåçûìÿííûé_ãðàäèåíò_28);}.cls-6{fill:#e5e2ff;}.cls-7{fill:url(#Áåçûìÿííûé_ãðàäèåíò_28-2);}.cls-8,.cls-9{opacity:0.62;}.cls-14,.cls-15,.cls-16,.cls-17,.cls-18,.cls-19,.cls-34,.cls-8,.cls-9{mix-blend-mode:multiply;}.cls-8{fill:url(#Áåçûìÿííûé_ãðàäèåíò_27);}.cls-9{fill:url(#Áåçûìÿííûé_ãðàäèåíò_94);}.cls-10,.cls-34{opacity:0.5;}.cls-10{mix-blend-mode:screen;fill:url(#Áåçûìÿííûé_ãðàäèåíò_95);}.cls-11{fill:#fff;}.cls-12,.cls-14{opacity:0.6;}.cls-13{fill:#744ca2;}.cls-14{fill:url(#Áåçûìÿííûé_ãðàäèåíò_89);}.cls-15,.cls-16,.cls-17,.cls-18{opacity:0.3;}.cls-15{fill:url(#Áåçûìÿííûé_ãðàäèåíò_85);}.cls-16{fill:url(#Áåçûìÿííûé_ãðàäèåíò_85-2);}.cls-17{fill:url(#Áåçûìÿííûé_ãðàäèåíò_85-3);}.cls-18{fill:url(#Áåçûìÿííûé_ãðàäèåíò_85-4);}.cls-19{fill:#d1d4fb;}.cls-20,.cls-35{mix-blend-mode:soft-light;}.cls-21{fill:#e0ffff;}.cls-22{opacity:0.81;fill:url(#Áåçûìÿííûé_ãðàäèåíò_115);}.cls-23{fill:#473da2;}.cls-24{fill:url(#Áåçûìÿííûé_ãðàäèåíò_302);}.cls-25{fill:url(#Áåçûìÿííûé_ãðàäèåíò_322);}.cls-26{fill:url(#Áåçûìÿííûé_ãðàäèåíò_25);}.cls-27{fill:url(#Áåçûìÿííûé_ãðàäèåíò_25-2);}.cls-28,.cls-30{opacity:0.73;}.cls-28{fill:url(#Áåçûìÿííûé_ãðàäèåíò_97);}.cls-29{fill:#953da2;}.cls-30{fill:url(#Áåçûìÿííûé_ãðàäèåíò_97-2);}.cls-31,.cls-32,.cls-33,.cls-34,.cls-35,.cls-38,.cls-39{fill-rule:evenodd;}.cls-31{fill:url(#Áåçûìÿííûé_ãðàäèåíò_206);}.cls-32{fill:url(#Áåçûìÿííûé_ãðàäèåíò_206-2);}.cls-33{fill:url(#Áåçûìÿííûé_ãðàäèåíò_107);}.cls-34{fill:#601734;}.cls-35{fill:#b3d9ff;}.cls-36{fill:#6877ff;}.cls-37{fill:#4f31e0;}.cls-38{fill:url(#Áåçûìÿííûé_ãðàäèåíò_107-2);}.cls-39{fill:url(#Áåçûìÿííûé_ãðàäèåíò_206-3);}</style><clipPath id="clip-path" transform="translate(-65.3 -59.21)"><rect class="cls-1" width="600" height="400"/></clipPath><linearGradient id="Áåçûìÿííûé_ãðàäèåíò_29" x1="139.84" y1="275.2" x2="139.84" y2="204.01" gradientTransform="matrix(0.91, -0.42, 0.42, 0.91, -75.05, 53.74)" gradientUnits="userSpaceOnUse"><stop offset="0" stop-color="#dbccff"/><stop offset="1" stop-color="#d1bbff"/></linearGradient><linearGradient id="Áåçûìÿííûé_ãðàäèåíò_28" x1="139.83" y1="277.98" x2="139.83" y2="206.79" gradientTransform="matrix(0.91, -0.42, 0.42, 0.91, -75.05, 53.74)" gradientUnits="userSpaceOnUse"><stop offset="0" stop-color="#b5a6e7"/><stop offset="1" stop-color="#7760bf"/></linearGradient><linearGradient id="Áåçûìÿííûé_ãðàäèåíò_28-2" x1="139.83" y1="260.28" x2="139.83" y2="230.27" xlink:href="#Áåçûìÿííûé_ãðàäèåíò_28"/><linearGradient id="Áåçûìÿííûé_ãðàäèåíò_27" x1="135.57" y1="230.87" x2="144.09" y2="230.87" gradientTransform="matrix(0.91, -0.42, 0.42, 0.91, -75.05, 53.74)" gradientUnits="userSpaceOnUse"><stop offset="0" stop-color="#8b8be0"/><stop offset="1" stop-color="#a177b7"/></linearGradient><linearGradient id="Áåçûìÿííûé_ãðàäèåíò_94" x1="139.83" y1="232.85" x2="139.83" y2="227.69" gradientTransform="matrix(0.91, -0.42, 0.42, 0.91, -75.05, 53.74)" gradientUnits="userSpaceOnUse"><stop offset="0" stop-color="#fff"/><stop offset="1" stop-color="#a177b7"/></linearGradient><linearGradient id="Áåçûìÿííûé_ãðàäèåíò_95" x1="144.34" y1="263.34" x2="144.34" y2="230.26" gradientTransform="matrix(0.91, -0.42, 0.42, 0.91, -75.05, 53.74)" gradientUnits="userSpaceOnUse"><stop offset="0"/><stop offset="1" stop-color="#fff"/></linearGradient><linearGradient id="Áåçûìÿííûé_ãðàäèåíò_89" x1="351.8" y1="132.95" x2="528.85" y2="132.95" gradientUnits="userSpaceOnUse"><stop offset="0" stop-color="#9d68c2"/><stop offset="1" stop-color="#aec2ff"/></linearGradient><linearGradient id="Áåçûìÿííûé_ãðàäèåíò_85" x1="322.52" y1="140.61" x2="322.52" y2="87.21" gradientUnits="userSpaceOnUse"><stop offset="0" stop-color="#ccedff"/><stop offset="1" stop-color="#9d68c2"/></linearGradient><linearGradient id="Áåçûìÿííûé_ãðàäèåíò_85-2" x1="413.58" y1="114.57" x2="413.58" y2="91.05" xlink:href="#Áåçûìÿííûé_ãðàäèåíò_85"/><linearGradient id="Áåçûìÿííûé_ãðàäèåíò_85-3" x1="441.33" y1="114.57" x2="441.33" y2="91.05" xlink:href="#Áåçûìÿííûé_ãðàäèåíò_85"/><linearGradient id="Áåçûìÿííûé_ãðàäèåíò_85-4" x1="385.36" y1="114.57" x2="385.36" y2="91.05" xlink:href="#Áåçûìÿííûé_ãðàäèåíò_85"/><linearGradient id="Áåçûìÿííûé_ãðàäèåíò_115" x1="193.4" y1="375.37" x2="206.71" y2="269.36" gradientUnits="userSpaceOnUse"><stop offset="0" stop-color="#067eff"/><stop offset="1" stop-color="#3e37a0"/></linearGradient><linearGradient id="Áåçûìÿííûé_ãðàäèåíò_302" x1="84.26" y1="218.04" x2="84.26" y2="206.92" gradientUnits="userSpaceOnUse"><stop offset="0" stop-color="#459fff"/><stop offset="1" stop-color="#a96dff"/></linearGradient><linearGradient id="Áåçûìÿííûé_ãðàäèåíò_322" x1="163.91" y1="83.52" x2="163.91" y2="77.2" gradientUnits="userSpaceOnUse"><stop offset="0" stop-color="#b31a8f"/><stop offset="1" stop-color="#fe117e"/></linearGradient><linearGradient id="Áåçûìÿííûé_ãðàäèåíò_25" x1="375.56" y1="222.95" x2="375.56" y2="216.63" gradientUnits="userSpaceOnUse"><stop offset="0" stop-color="#8642a0"/><stop offset="1" stop-color="#6456c0"/></linearGradient><linearGradient id="Áåçûìÿííûé_ãðàäèåíò_25-2" x1="47.04" y1="254.12" x2="47.04" y2="248.47" xlink:href="#Áåçûìÿííûé_ãðàäèåíò_25"/><linearGradient id="Áåçûìÿííûé_ãðàäèåíò_97" x1="136.04" y1="282.77" x2="136.04" y2="236.11" gradientUnits="userSpaceOnUse"><stop offset="0" stop-color="#d906e3"/><stop offset="1" stop-color="#ff6df9"/></linearGradient><linearGradient id="Áåçûìÿííûé_ãðàäèåíò_97-2" x1="458.23" y1="348.82" x2="458.23" y2="290.45" xlink:href="#Áåçûìÿííûé_ãðàäèåíò_97"/><linearGradient id="Áåçûìÿííûé_ãðàäèåíò_206" x1="404.32" y1="275.2" x2="399.35" y2="232.51" gradientTransform="matrix(0.97, 0.26, -0.26, 0.97, 63.63, -54.68)" gradientUnits="userSpaceOnUse"><stop offset="0" stop-color="#1852a0"/><stop offset="1" stop-color="#067ed3"/></linearGradient><linearGradient id="Áåçûìÿííûé_ãðàäèåíò_206-2" x1="399.5" y1="275.37" x2="399.5" y2="231.62" xlink:href="#Áåçûìÿííûé_ãðàäèåíò_206"/><linearGradient id="Áåçûìÿííûé_ãðàäèåíò_107" x1="361.94" y1="289.27" x2="358.72" y2="261.66" gradientTransform="matrix(0.94, 0.33, -0.52, 1.49, 181.34, -235.91)" gradientUnits="userSpaceOnUse"><stop offset="0" stop-color="#188dc1"/><stop offset="1" stop-color="#06bfe7"/></linearGradient><linearGradient id="Áåçûìÿííûé_ãðàäèåíò_107-2" x1="121.92" y1="160.57" x2="129.65" y2="131.88" gradientTransform="matrix(-1, 0, 0, 1, 141.36, -59.21)" xlink:href="#Áåçûìÿííûé_ãðàäèåíò_107"/><linearGradient id="Áåçûìÿííûé_ãðàäèåíò_206-3" x1="108.65" y1="157.26" x2="114.41" y2="135.87" gradientTransform="matrix(-1, 0, 0, 1, 141.36, -59.21)" xlink:href="#Áåçûìÿííûé_ãðàäèåíò_206"/></defs><title>developer</title><g class="cls-2"><g id="illustration"><g class="cls-3"><path class="cls-4" d="M155.1,185.61a23.82,23.82,0,0,0-10.56-9.26l-2.35,1.09,5.3,9.61a10.33,10.33,0,0,1-3.24,5.72v0a10.34,10.34,0,0,1-6.47-1.18l-4-10.23-2.36,1.1a23.8,23.8,0,0,0,.34,14s1,2.31,1.17,2.52c.94,1.08,3.36,2.34,8.06,2.05L157.22,232a8.48,8.48,0,1,0,8.76-4.09l-13.3-32.25c3.16-3.34,3.83-6,3.59-7.49A27.3,27.3,0,0,0,155.1,185.61Zm13.32,53.31-4.29,2-3.88-2.71.41-4.72,4.29-2,3.88,2.71Z" transform="translate(-65.3 -59.21)"/><path class="cls-5" d="M156.27,188.13a23.75,23.75,0,0,0-10.55-9.27l-2.35,1.1,5.29,9.6a10.22,10.22,0,0,1-3.24,5.72h0a10.3,10.3,0,0,1-6.47-1.19l-4-10.22-2.35,1.1a23.84,23.84,0,0,0,.33,14s3.67,4.91,9.23,4.56l16.21,30.92a8.47,8.47,0,1,0,8.76-4.1l-13.31-32.24C157.69,194.09,156.27,188.13,156.27,188.13Zm13.33,53.31-4.29,2-3.88-2.71.41-4.72,4.29-2,3.88,2.72Z" transform="translate(-65.3 -59.21)"/><rect class="cls-6" x="131.92" y="181.76" width="2.59" height="2.78" transform="translate(-130.3 14.4) rotate(-25.04)"/><rect class="cls-6" x="142.66" y="176.76" width="2.59" height="2.78" transform="translate(-127.18 18.48) rotate(-25.04)"/><rect class="cls-6" x="164.5" y="239.79" width="4.74" height="2.78" transform="translate(-151.7 34.09) rotate(-25.04)"/><path class="cls-7" d="M145.66,205.86,158.75,231a6.38,6.38,0,0,0,5.28-2.47l-10.65-26.29A10.09,10.09,0,0,0,145.66,205.86ZM163,228.75a7.7,7.7,0,0,1-1.69,1.11,6.5,6.5,0,0,1-1.81.54l-13.1-24.64a13.75,13.75,0,0,1,3.15-2.07,11,11,0,0,1,3.24-.95Z" transform="translate(-65.3 -59.21)"/><path class="cls-6" d="M163,228.75l1-.21a5.64,5.64,0,0,1-5.28,2.47l.77-.61A7.13,7.13,0,0,0,163,228.75Z" transform="translate(-65.3 -59.21)"/><path class="cls-8" d="M145.66,205.86l.76-.1a12.16,12.16,0,0,1,6.39-3l.57-.49a9.88,9.88,0,0,0-7.72,3.61Z" transform="translate(-65.3 -59.21)"/><path class="cls-9" d="M142.19,203.56a28.93,28.93,0,0,0,11.66-5.42l1.7,4.12s-1.93-1.91-6.16-.18c-4.95,2-4.68,6-4.68,6Z" transform="translate(-65.3 -59.21)"/><path class="cls-10" d="M155.55,202.26a5,5,0,0,0-2.58-.89L165.63,232l1.53-1.58Z" transform="translate(-65.3 -59.21)"/><path class="cls-11" d="M155.55,202.26s-1.32,4.09,2.49,6Z" transform="translate(-65.3 -59.21)"/><path class="cls-12" d="M351.66,134.61l3.22,91.8a6.76,6.76,0,0,0,6.76,6.53H519.77a6.77,6.77,0,0,0,6.76-6.61l2.21-92.86a6.76,6.76,0,0,0-6.8-6.93l-163.57,1.07A6.76,6.76,0,0,0,351.66,134.61Z" transform="translate(-65.3 -59.21)"/><path class="cls-13" d="M519.77,233.19H361.64a7,7,0,0,1-7-6.77l-3.22-91.8a7,7,0,0,1,7-7.26l163.57-1.07a7.07,7.07,0,0,1,5,2.1,7,7,0,0,1,2,5.08l-2.22,92.87A7,7,0,0,1,519.77,233.19ZM522,126.79h0l-163.56,1.07a6.52,6.52,0,0,0-6.47,6.75l3.22,91.79a6.49,6.49,0,0,0,6.51,6.29H519.77a6.55,6.55,0,0,0,6.51-6.36l2.22-92.87a6.52,6.52,0,0,0-6.52-6.67Z" transform="translate(-65.3 -59.21)"/><path class="cls-14" d="M351.89,139.29H528.56l.28-4.84a7.42,7.42,0,0,0-7.46-7.85l-163.5,1.29a6.13,6.13,0,0,0-6.08,6.25Z" transform="translate(-65.3 -59.21)"/><polygon class="cls-15" points="295.48 87.49 295.48 140.61 349.56 140.61 349.56 87.21 295.48 87.49"/><rect class="cls-16" x="401.81" y="91.05" width="23.52" height="23.52"/><rect class="cls-17" x="429.57" y="91.05" width="23.52" height="23.52"/><rect class="cls-18" x="373.6" y="91.05" width="23.52" height="23.52"/><rect class="cls-19" x="392.94" y="128.29" width="60.15" height="5.63"/><rect class="cls-19" x="377.89" y="136.86" width="75.2" height="1.74"/><rect class="cls-19" x="378.6" y="117.57" width="14.39" height="1.74"/><rect class="cls-19" x="406.38" y="117.57" width="14.39" height="1.74"/><rect class="cls-19" x="434.14" y="117.57" width="14.39" height="1.74"/><rect class="cls-19" x="373.6" y="139.7" width="24.19" height="1.74"/><rect class="cls-19" x="377.89" y="142.5" width="75.2" height="1.74"/><rect class="cls-19" x="373.6" y="145.3" width="79.49" height="1.74"/><rect class="cls-19" x="373.6" y="148.1" width="79.49" height="1.74"/><rect class="cls-19" x="377.89" y="159.42" width="75.2" height="1.74"/><rect class="cls-19" x="373.6" y="162.22" width="79.49" height="1.74"/><rect class="cls-19" x="373.6" y="165.02" width="79.49" height="1.74"/><rect class="cls-19" x="373.6" y="150.9" width="76.3" height="1.74"/><rect class="cls-19" x="377.89" y="153.7" width="75.2" height="1.74"/><rect class="cls-19" x="373.6" y="156.5" width="64.41" height="1.74"/><g class="cls-20"><path class="cls-21" d="M375.93,189.17a15.39,15.39,0,1,1,15.38-15.39A15.4,15.4,0,0,1,375.93,189.17Zm0-29.77a14.39,14.39,0,1,0,14.38,14.38A14.4,14.4,0,0,0,375.93,159.4Z" transform="translate(-65.3 -59.21)"/></g><circle class="cls-11" cx="310.63" cy="114.57" r="8.36"/><g class="cls-20"><path class="cls-21" d="M414.85,161.8a15.39,15.39,0,1,1,15.39-15.38A15.4,15.4,0,0,1,414.85,161.8Zm0-29.77a14.39,14.39,0,1,0,14.39,14.39A14.4,14.4,0,0,0,414.85,132Z" transform="translate(-65.3 -59.21)"/></g><circle class="cls-11" cx="414.85" cy="146.42" r="7.87" transform="matrix(0.16, -0.99, 0.99, 0.16, 140.43, 474.26)"/><g class="cls-20"><polygon class="cls-11" points="292.79 72.87 293.91 71.17 299.99 76.49 299.06 77.79 292.79 72.87"/><polygon class="cls-11" points="300.15 72.87 299.02 71.17 292.94 76.49 293.88 77.79 300.15 72.87"/></g><rect class="cls-11" x="404.55" y="72.32" width="54.44" height="2.73"/><path class="cls-22" d="M249.27,370.18H152.58a7.93,7.93,0,0,1-7.92-7.74l-1.8-79.3a7.91,7.91,0,0,1,7.92-8.1H251.44a7.92,7.92,0,0,1,7.92,8.13l-2.17,79.31A7.92,7.92,0,0,1,249.27,370.18Z" transform="translate(-65.3 -59.21)"/><path class="cls-23" d="M249.27,370.43H152.58a8.22,8.22,0,0,1-8.17-8l-1.8-79.31a8.16,8.16,0,0,1,8.17-8.35H251.44a8.16,8.16,0,0,1,8.17,8.39l-2.17,79.31A8.13,8.13,0,0,1,249.27,370.43Zm-98.49-95.14a7.65,7.65,0,0,0-7.67,7.84l1.8,79.31a7.72,7.72,0,0,0,7.67,7.49h96.69a7.64,7.64,0,0,0,7.67-7.46l2.17-79.3a7.67,7.67,0,0,0-7.67-7.88Z" transform="translate(-65.3 -59.21)"/><rect class="cls-11" x="103.63" y="232.05" width="50.85" height="2.18"/><rect class="cls-11" x="103.63" y="237.34" width="25.42" height="2.18"/><rect class="cls-11" x="103.63" y="241.76" width="25.42" height="2.18"/><rect class="cls-11" x="131.9" y="241.76" width="20.23" height="2.18"/><rect class="cls-11" x="103.63" y="246.19" width="40.99" height="2.18"/><rect class="cls-11" x="103.63" y="250.61" width="14.59" height="2.18"/><rect class="cls-11" x="121.22" y="263.87" width="25.23" height="2.18"/><rect class="cls-11" x="103.63" y="255.03" width="45.73" height="2.18"/><rect class="cls-11" x="103.63" y="259.45" width="35.18" height="2.18"/><rect class="cls-11" x="103.63" y="263.87" width="16.55" height="2.18"/><rect class="cls-11" x="103.63" y="268.29" width="25.42" height="2.18"/><rect class="cls-11" x="103.63" y="272.71" width="7.29" height="2.18"/><rect class="cls-11" x="113.92" y="272.71" width="26.46" height="2.18"/><rect class="cls-11" x="121.22" y="277" width="25.23" height="2.18"/><rect class="cls-11" x="103.63" y="277" width="16.55" height="2.18"/><rect class="cls-11" x="103.63" y="281.42" width="25.42" height="2.18"/><rect class="cls-11" x="103.63" y="285.84" width="7.29" height="2.18"/><rect class="cls-11" x="113.92" y="285.84" width="26.46" height="2.18"/><path class="cls-24" d="M89.82,212.48a5.57,5.57,0,1,1-5.56-5.56A5.56,5.56,0,0,1,89.82,212.48Z" transform="translate(-65.3 -59.21)"/><circle class="cls-25" cx="163.91" cy="80.36" r="3.16"/><circle class="cls-26" cx="375.56" cy="219.79" r="3.16"/><circle class="cls-27" cx="47.04" cy="251.3" r="2.82"/><path class="cls-28" d="M160.49,282.77h-48.8a7.28,7.28,0,0,1-7.27-7l-1.09-32.09a7.28,7.28,0,0,1,7.28-7.53h50.87a7.28,7.28,0,0,1,7.27,7.5l-1,32.1A7.28,7.28,0,0,1,160.49,282.77Z" transform="translate(-65.3 -59.21)"/><path class="cls-29" d="M160.49,283h-48.8a7.5,7.5,0,0,1-7.52-7.28l-1.09-32.09a7.55,7.55,0,0,1,7.53-7.79h50.87a7.53,7.53,0,0,1,7.52,7.76l-1,32.1A7.49,7.49,0,0,1,160.49,283Zm-49.88-46.66a7,7,0,0,0-7,7.27l1.09,32.09a7,7,0,0,0,7,6.8h48.8a7,7,0,0,0,7-6.82l1-32.09a7,7,0,0,0-7-7.25Z" transform="translate(-65.3 -59.21)"/><polygon class="cls-11" points="59.41 188.43 47.38 202.38 59.63 212.78 59.63 207.41 52.54 201.27 59.12 193.83 59.41 188.43"/><polygon class="cls-11" points="80.56 189.06 92.59 203 80.34 213.4 80.34 208.03 87.42 201.9 79.54 193.55 80.56 189.06"/><polygon class="cls-11" points="62.03 212.78 72.51 189.68 77.44 189.68 65.57 212.78 62.03 212.78"/><path class="cls-30" d="M488.82,348.82H427.77a9.1,9.1,0,0,1-9.1-8.8l-1.36-40.15a9.12,9.12,0,0,1,9.11-9.42h63.63a9.12,9.12,0,0,1,9.11,9.39L497.93,340A9.11,9.11,0,0,1,488.82,348.82Z" transform="translate(-65.3 -59.21)"/><path class="cls-29" d="M488.82,349.07H427.77a9.32,9.32,0,0,1-9.35-9l-1.36-40.15a9.36,9.36,0,0,1,9.36-9.68h63.63a9.36,9.36,0,0,1,9.36,9.64L498.18,340A9.33,9.33,0,0,1,488.82,349.07Zm-62.4-58.37a8.87,8.87,0,0,0-8.86,9.16L418.92,340a8.82,8.82,0,0,0,8.85,8.56h61.05a8.82,8.82,0,0,0,8.86-8.59l1.23-40.15a8.86,8.86,0,0,0-8.86-9.13Z" transform="translate(-65.3 -59.21)"/><rect class="cls-19" x="364.25" y="237.7" width="55.91" height="33.21"/><polygon class="cls-11" points="387.25 245.94 387.25 262.67 401.54 253.54 387.25 245.94"/><rect class="cls-19" x="364.25" y="277.03" width="55.91" height="3.04"/><rect class="cls-11" x="364.25" y="277.03" width="14.47" height="3.04"/><path class="cls-31" d="M388.58,286.42l-2.91,8.34C387.28,290.15,389.6,287.16,388.58,286.42Zm-2.91,8.34-2.93,8.35C383.48,302.89,384.05,299.38,385.67,294.76Zm2.91-8.34-2.91,8.34C387.28,290.15,389.6,287.16,388.58,286.42Zm-2.91,8.34-2.93,8.35C383.48,302.89,384.05,299.38,385.67,294.76Zm8.42,7.24,2.84,1.6,3.06-8.35-3.28-.55c.06-.31.11-.62.15-.92a21.39,21.39,0,0,0,.28-4.17l3.43-2.15L399,280.1l-3.29,3.15A9.66,9.66,0,0,0,394,280.8a6,6,0,0,0-.57-.56l2-4.64-5.35-1.74h0l-1.28,4.68a8.74,8.74,0,0,0-3.62.85l-.59-4.42-5.89,4.45,1.36,3.92a22.31,22.31,0,0,0-2.87,4.18l-2.84-1.6-3.06,8.35,3.28.55a22.54,22.54,0,0,0-.43,5.09l-3.43,2.15,1.56,7.36,3.29-3.14a9.13,9.13,0,0,0,2.25,3l-2,4.65,5.26,2.05.81-3,.56-2a9,9,0,0,0,3.63-.85l.58,4.42,5.89-4.46-1.36-3.91a22.31,22.31,0,0,0,2.31-3.21C393.73,302.66,393.91,302.33,394.09,302Zm-8.42-7.24c-1.62,4.62,0,9.37-2.93,8.35s-4-5.6-2.38-10.2,5.3-7.52,8.22-6.49S387.28,290.15,385.67,294.76Zm2.91-8.34-2.91,8.34C387.28,290.15,389.6,287.16,388.58,286.42Zm-2.91,8.34-2.93,8.35C383.48,302.89,384.05,299.38,385.67,294.76Z" transform="translate(-65.3 -59.21)"/><path class="cls-32" d="M396.93,303.6l3.06-8.35-3.13-1.47-.5-.24.33-4.6,3.46-1.69L399,280.1l-7.55-2.45,1.39,3.31,2.63-5.36-5.35-1.74-2.19-.71-5.27-2.06-1,3.6-4.59-2.18L371.21,277l1.78,4.82-5.5,15.27L364.77,307l5.23.57-1.71,3.93,5.28,2.06,7.54,2.45-1.21-2.42-.76-1.45,2.78.91,4.77,1.55,5.89-4.46-3.64-4.29,4.59-2.83Zm-16.57-10.69c1.62-4.61,5.3-7.52,8.22-6.49l-2.91,8.34-2.93,8.35C379.81,302.08,378.74,297.51,380.36,292.91Z" transform="translate(-65.3 -59.21)"/><path class="cls-33" d="M389.38,301.14l3.06-8.35-3.28-.55a23.75,23.75,0,0,0,.44-5.08L393,285l-1.57-7.36-3.29,3.14a9,9,0,0,0-2.25-3l2-4.64-5.27-2.06-1.37,5a8.92,8.92,0,0,0-3.62.84l-.58-4.41L371.21,277l1.35,3.92a22.39,22.39,0,0,0-2.87,4.19l-2.84-1.6-3.05,8.35,3.28.55a22.44,22.44,0,0,0-.44,5.08l-3.43,2.15,1.56,7.36,3.29-3.14a9.17,9.17,0,0,0,2.25,3l-2,4.64,5.27,2.05,1.36-5a8.94,8.94,0,0,0,3.63-.85l.58,4.42,5.89-4.46-1.36-3.91a22.39,22.39,0,0,0,2.87-4.19Zm-14.19-.49c-2.93-1-4-5.6-2.38-10.2s5.3-7.52,8.23-6.49,4,5.59,2.38,10.2S378.12,301.67,375.19,300.65Z" transform="translate(-65.3 -59.21)"/><polygon class="cls-34" points="335.27 228.25 327.73 225.79 324.3 227.95 331.85 230.4 335.27 228.25"/><polygon class="cls-35" points="327.28 250.89 319.73 248.43 318.38 244.52 325.92 246.97 327.28 250.89"/><polygon class="cls-34" points="320.63 218.58 324.77 219.78 326.17 218.44 328.91 219.33 330.19 216.39 322.64 213.94 320.63 218.58"/><path class="cls-34" d="M374.93,308.53l3.95,1.64-.32-2.49A7.08,7.08,0,0,1,374.93,308.53Z" transform="translate(-65.3 -59.21)"/><path class="cls-34" d="M375.54,285.9l6.66,3.52a10.23,10.23,0,0,1,1.71-1.81S382.17,280.27,375.54,285.9Z" transform="translate(-65.3 -59.21)"/><polygon class="cls-36" points="13.04 277.09 18.98 283.61 21.31 280.92 15.71 274.75 13.04 277.09"/><polygon class="cls-37" points="314.82 56.16 308.84 59.79 306.44 55.24 312.98 51.42 314.82 56.16"/><polygon class="cls-37" points="344.26 285.87 335.69 291.96 333.3 287.42 341.62 282.56 344.26 285.87"/><polygon class="cls-38" points="29.06 98.77 30.04 75.82 0 75.82 1.24 98.7 29.06 98.77"/><polygon class="cls-39" points="30.04 75.82 30.94 77.18 30.04 98.77 29.06 98.77 30.04 75.82"/><path class="cls-11" d="M83.77,139.65a20.7,20.7,0,0,1,3.87.14c.58.27-.15,5.64-.15,5.64l1.31,1.2-1.22,1.19s.06,5.44-.71,5.9-3.43,0-3.43,0v-1.36A7.63,7.63,0,0,0,86,152.2c.36-.29.33-5,.33-5l.58-.63-.58-.69s.1-3.39,0-4.32c0-.62-2.56-.65-2.56-.65Z" transform="translate(-65.3 -59.21)"/><path class="cls-11" d="M76.22,139.65a20.7,20.7,0,0,0-3.87.14c-.59.27.15,5.64.15,5.64l-1.32,1.2,1.23,1.19s-.06,5.44.71,5.9,3.42,0,3.42,0v-1.36A7.57,7.57,0,0,1,74,152.2c-.36-.29-.33-5-.33-5l-.58-.63.58-.69s-.11-3.39,0-4.32c0-.62,2.56-.65,2.56-.65Z" transform="translate(-65.3 -59.21)"/><path class="cls-13" d="M347.86,87.33,340.5,68.06l19.09,4Zm-6.57-18.59L348,86.32l10.7-13.94Z" transform="translate(-65.3 -59.21)"/><rect class="cls-13" x="398.19" y="355.71" width="10.94" height="0.5" transform="matrix(0.59, -0.81, 0.81, 0.59, -187.37, 411.87)"/><polygon class="cls-13" points="274.62 219.95 267.67 211.3 268.06 210.99 275.01 219.64 274.62 219.95"/><polygon class="cls-13" points="60.29 280.67 46.42 270.61 46.72 270.21 60.58 280.26 60.29 280.67"/><rect class="cls-13" x="110.23" y="334.4" width="17.13" height="0.5" transform="translate(-284.69 167.15) rotate(-52.7)"/><rect class="cls-13" x="98.59" y="184.72" width="0.5" height="10.14" transform="translate(-180.44 129.8) rotate(-62.28)"/><polygon class="cls-13" points="382.75 12.16 382.38 11.83 392.75 0 393.13 0.33 382.75 12.16"/><rect class="cls-13" x="248.43" y="99.55" width="0.5" height="10.41" transform="translate(-85.92 62.52) rotate(-26.45)"/><rect class="cls-13" x="171.13" y="261.73" width="15.54" height="0.5" transform="translate(-191.71 116.61) rotate(-39.91)"/></g></g></g></svg>